<?xml version="1.0" standalone="no"?>
<!DOCTYPE svg PUBLIC "-//W3C//DTD SVG 20010904//EN"
 "http://www.w3.org/TR/2001/REC-SVG-20010904/DTD/svg10.dtd">
<svg version="1.0" xmlns="http://www.w3.org/2000/svg"
 width="1024.000000pt" height="1024.000000pt" viewBox="0 0 1024.000000 1024.000000"
 preserveAspectRatio="xMidYMid meet">

<g transform="translate(0.000000,1024.000000) scale(0.100000,-0.100000)"
fill="#000000" stroke="none">
<path d="M5233 8238 c-7 -8 -39 -27 -72 -43 -33 -15 -58 -32 -55 -37 3 -4 -1
-5 -8 -3 -16 6 -59 -139 -84 -281 -17 -97 -33 -429 -22 -466 3 -13 6 -290 7
-615 l1 -593 -332 0 c-501 0 -670 -27 -913 -145 -184 -89 -381 -260 -503 -438
-65 -94 -150 -257 -183 -349 l-24 -67 -418 -3 -419 -3 -25 -29 c-32 -37 -26
-90 12 -123 26 -23 27 -23 386 -23 197 0 359 -2 359 -4 0 -2 -13 -32 -28 -67
-16 -35 -35 -85 -42 -111 l-13 -48 -309 0 c-324 0 -356 -4 -372 -45 -13 -34
-5 -75 18 -102 l24 -28 311 -3 311 -3 0 -153 c0 -133 6 -206 25 -293 l5 -23
-302 -1 c-326 0 -363 -5 -385 -49 -20 -40 -15 -69 16 -101 l29 -29 344 0 344
0 16 -32 c41 -86 162 -181 249 -196 41 -7 46 -12 81 -73 45 -79 126 -165 193
-208 27 -17 45 -31 39 -31 -5 -1 -155 0 -334 0 -281 0 -328 -2 -347 -15 -28
-20 -30 -65 -5 -88 17 -16 90 -17 840 -17 809 0 822 0 842 20 26 26 25 52 -4
79 -23 22 -29 22 -190 19 -91 -2 -166 -3 -166 -3 0 0 31 24 68 54 80 65 133
127 168 199 l26 52 144 0 144 0 0 -47 c1 -96 53 -194 133 -250 l37 -26 0 -75
c0 -94 14 -142 58 -192 97 -114 265 -119 372 -11 54 54 70 100 70 199 l0 72
39 20 c90 45 146 132 157 243 l7 67 223 0 223 0 33 -62 c38 -72 145 -186 203
-216 l40 -21 -255 -1 c-215 0 -259 -2 -278 -16 -27 -19 -29 -64 -4 -87 17 -16
89 -17 830 -17 799 0 812 0 832 20 26 26 25 55 -1 81 -19 19 -29 20 -260 17
-131 -2 -239 -1 -238 2 0 3 27 24 59 47 66 47 140 135 173 206 l22 47 95 0
c200 1 349 59 467 184 113 118 161 239 170 427 9 178 -30 325 -126 471 -116
177 -307 312 -577 408 l-91 32 -99 126 c-358 455 -601 658 -909 761 -178 59
-213 63 -572 68 l-333 5 0 603 0 603 44 26 c91 53 156 152 182 278 25 121 6
234 -67 383 -59 123 -90 163 -106 143z m-52 -384 c-6 -28 -9 -32 -10 -14 -1
30 11 79 16 64 2 -6 -1 -28 -6 -50z m27 -54 c-9 -15 -14 -40 -11 -56 4 -25 3
-27 -7 -11 -8 12 -10 38 -5 73 6 50 8 53 23 38 15 -15 15 -19 0 -44z m-1239
-2035 c16 -8 31 -22 35 -30 15 -41 4 -62 -74 -139 -65 -63 -88 -95 -120 -162
-42 -88 -59 -104 -109 -104 -35 0 -71 39 -71 77 0 75 179 315 265 354 48 22
40 22 74 4z m1031 -192 c0 -93 -1 -183 0 -201 1 -79 102 -113 154 -51 l26 31
0 194 c0 107 2 194 5 194 3 0 34 -13 68 -29 43 -19 75 -42 100 -73 65 -80 67
-89 67 -370 l0 -253 -157 3 c-86 2 -172 1 -190 -3 -67 -12 -95 -84 -53 -137
18 -24 27 -26 127 -30 144 -6 205 -38 256 -133 20 -36 22 -55 22 -180 -1 -123
-3 -145 -22 -180 -24 -46 -54 -76 -100 -99 -53 -26 -73 -55 -73 -101 0 -73 16
-79 192 -79 l152 -1 4 -102 4 -103 -461 0 -461 0 0 105 0 105 168 2 167 3 3
173 2 172 59 0 c54 0 62 3 85 31 34 40 33 74 -3 110 -29 28 -31 29 -138 29
-118 0 -157 14 -202 72 -48 61 -51 88 -51 462 0 391 4 420 63 498 32 41 139
108 173 108 12 0 15 -27 14 -167z m-430 -595 c0 -95 4 -199 10 -231 19 -120
82 -213 193 -289 l59 -40 -6 -52 c-3 -28 -6 -63 -6 -78 l0 -28 -80 0 c-114 0
-175 -16 -220 -56 -48 -43 -60 -91 -51 -206 l6 -88 -76 0 c-131 0 -135 -2
-154 -77 -19 -79 -32 -105 -83 -170 -130 -164 -379 -212 -560 -107 -118 67
-183 147 -222 271 -26 81 -30 83 -144 83 -33 0 -68 5 -76 10 -10 6 50 10 180
10 l195 0 24 -55 c26 -61 92 -128 149 -152 55 -23 157 -21 213 4 60 27 125 92
152 152 63 140 -17 318 -165 367 -65 21 -167 15 -224 -14 -40 -20 -104 -83
-104 -102 0 -11 -382 -15 -392 -4 -3 3 9 35 27 72 32 66 37 101 9 65 -9 -12
-12 -13 -9 -3 5 13 -8 15 -85 12 -81 -3 -90 -5 -78 -19 7 -8 13 -31 14 -50 1
-45 -10 -25 -30 53 -11 43 -16 107 -16 208 l0 146 34 0 c53 0 95 19 112 52 32
62 -11 127 -85 130 -42 1 -43 2 -37 31 19 94 111 220 199 271 91 54 105 55
740 55 l587 1 0 -172z m2298 152 c196 -47 517 -193 618 -282 116 -102 179
-207 207 -346 12 -56 13 -79 4 -102 -6 -17 -15 -30 -19 -30 -12 0 -10 14 5 30
6 7 -6 0 -28 -17 -99 -75 -195 -100 -396 -104 l-124 -3 37 -75 c39 -77 68
-191 68 -262 l0 -39 -93 2 c-51 1 -98 -2 -105 -6 -6 -4 -20 -37 -31 -74 -70
-232 -311 -368 -546 -306 -80 20 -139 56 -205 124 -63 64 -102 132 -120 207
-14 61 -18 63 -151 63 l-95 0 8 67 c11 92 31 157 73 236 l36 68 -148 -1 c-81
-1 -183 -6 -227 -11 -43 -6 -80 -8 -82 -6 -3 3 4 20 15 38 45 76 63 241 41
359 -6 30 -21 78 -35 108 l-25 55 21 45 c18 35 23 69 27 163 l5 119 591 0
c554 0 596 -1 674 -20z m841 -812 c-1 -24 -4 -33 -6 -20 -2 12 -9 20 -14 17
-5 -4 -9 3 -9 15 0 12 5 18 10 15 6 -3 10 -1 10 4 0 6 2 11 5 11 3 0 4 -19 4
-42z m-13 -80 c4 -7 3 -10 -1 -5 -5 4 -19 0 -32 -8 -13 -9 -23 -12 -23 -7 0 7
25 24 47 31 1 1 5 -5 9 -11z m-1759 -40 c-3 -8 -6 -5 -6 6 -1 11 2 17 5 13 3
-3 4 -12 1 -19z m-157 -110 c0 -5 -4 -8 -10 -8 -5 0 -10 10 -10 23 0 18 2 19
10 7 5 -8 10 -18 10 -22z m1553 -5 c-7 -2 -19 -2 -25 0 -7 3 -2 5 12 5 14 0
19 -2 13 -5z m-1993 -418 c0 -35 -6 -51 -31 -80 -42 -47 -83 -57 -222 -53
l-117 3 -41 41 c-33 33 -42 50 -46 88 l-6 46 232 0 231 0 0 -45z m-170 -364
c0 -52 -23 -81 -64 -81 -57 0 -87 44 -77 112 1 4 33 7 71 6 l70 -1 0 -36z"/>
<path d="M6471 4243 c-61 -22 -133 -96 -154 -158 -26 -74 -22 -161 9 -223 103
-206 395 -206 498 0 21 41 26 66 26 122 -1 109 -46 189 -137 243 -58 34 -174
42 -242 16z"/>
<path d="M4970 7585 c0 -94 -3 -102 -28 -86 -11 7 -10 9 2 14 24 9 21 124 -3
130 -13 4 -13 5 2 6 9 0 17 6 17 12 0 10 -16 7 -67 -12 -15 -5 -21 -14 -17
-24 3 -8 2 -15 -4 -15 -6 0 -12 4 -14 10 -2 6 -8 6 -18 0 -13 -8 -13 -10 2
-10 11 0 15 -5 12 -15 -4 -8 -10 -15 -16 -15 -5 0 -7 4 -4 9 3 5 -1 12 -10 15
-21 8 -24 8 -24 -5 0 -5 5 -7 11 -4 6 4 10 1 8 -6 -3 -28 1 -40 13 -33 6 4 8
3 4 -4 -8 -14 43 -74 56 -65 6 3 8 1 4 -5 -8 -14 59 -66 76 -59 10 4 10 6 1 6
-7 1 -13 8 -13 16 0 9 -6 12 -17 8 -15 -5 -14 -3 2 10 19 14 20 14 27 -6 3
-12 6 33 7 101 1 67 -1 122 -4 122 -3 0 -5 -43 -5 -95z"/>
<path d="M6571 7483 c-1 -13 -111 -89 -227 -156 -59 -34 -108 -54 -185 -72
-185 -45 -252 -66 -346 -111 -97 -47 -223 -135 -288 -205 -36 -38 -38 -41 -15
-35 14 3 109 29 213 56 103 27 196 54 208 60 11 6 25 10 31 8 23 -8 -215 -183
-486 -358 -64 -41 -116 -78 -116 -82 0 -16 93 -69 166 -94 97 -34 232 -38 334
-11 90 24 223 90 297 149 135 107 251 281 338 508 36 92 89 312 82 339 -3 9
-5 11 -6 4z"/>
<path d="M3982 7231 c40 -47 170 -161 213 -186 22 -13 116 -44 209 -70 92 -25
198 -57 234 -70 l65 -24 -74 75 c-133 134 -280 216 -473 264 -61 15 -131 30
-155 34 l-43 7 24 -30z"/>
<path d="M4682 2854 l-22 -15 0 -349 0 -349 26 -20 c37 -29 70 -26 105 8 l29
29 0 137 0 137 29 29 c37 36 79 38 118 5 28 -24 28 -25 29 -153 2 -174 1 -170
26 -193 29 -27 71 -25 105 4 l28 24 0 179 c0 166 -2 181 -23 220 -33 62 -89
96 -168 101 -51 4 -70 0 -99 -17 -20 -11 -38 -21 -41 -21 -2 0 -4 49 -4 108 0
100 -2 110 -23 130 -28 26 -82 29 -115 6z"/>
<path d="M6285 2845 c-61 -60 -1 -159 83 -140 41 9 64 37 65 81 2 74 -95 113
-148 59z"/>
<path d="M2779 2647 c-121 -34 -200 -139 -201 -267 -1 -85 29 -156 89 -211 59
-54 102 -71 185 -71 85 0 169 36 199 86 25 41 24 62 -6 91 -30 31 -67 32 -106
3 -47 -35 -118 -32 -158 6 -62 60 -58 149 8 193 42 28 86 29 129 3 66 -40 142
-11 142 55 0 81 -161 145 -281 112z"/>
<path d="M3286 2645 c-95 -26 -131 -82 -88 -135 19 -24 22 -24 79 -12 76 16
116 15 156 -2 47 -19 67 -55 67 -120 0 -72 -33 -114 -97 -123 -75 -10 -119 40
-73 82 28 25 22 65 -11 84 -60 33 -158 -24 -173 -101 -8 -43 5 -99 33 -144 44
-72 185 -97 285 -51 l49 23 23 -23 c32 -31 78 -30 111 3 l25 26 -4 171 c-5
194 -16 232 -82 282 -67 51 -197 68 -300 40z"/>
<path d="M4271 2645 c-108 -34 -162 -156 -106 -241 23 -35 68 -61 150 -85 79
-24 96 -34 88 -55 -7 -19 -93 -19 -140 1 -49 21 -86 19 -108 -5 -20 -23 -22
-74 -4 -96 35 -42 167 -79 243 -68 108 17 176 86 176 179 0 90 -44 137 -161
171 -88 25 -105 35 -95 53 10 16 69 14 132 -5 50 -14 57 -14 79 0 46 30 45 91
-2 121 -63 42 -173 55 -252 30z"/>
<path d="M5367 2641 c-32 -11 -67 -27 -78 -37 -24 -22 -24 -65 0 -95 18 -22
20 -22 90 -10 95 17 150 8 186 -29 36 -37 45 -111 20 -159 -29 -57 -126 -80
-165 -41 -26 26 -25 34 5 64 30 30 31 50 5 76 -24 24 -79 26 -121 5 -102 -53
-89 -234 22 -293 37 -20 55 -23 119 -20 51 2 89 10 118 25 l43 21 24 -24 c30
-29 64 -31 99 -3 l26 20 0 162 c0 89 -5 179 -11 200 -14 51 -64 106 -118 130
-65 29 -190 33 -264 8z"/>
<path d="M6771 2650 c-18 -4 -47 -18 -63 -30 l-29 -21 -21 26 c-28 36 -82 32
-112 -8 -19 -26 -21 -41 -21 -240 0 -187 2 -216 18 -240 21 -33 58 -43 96 -27
43 17 51 47 51 190 0 70 3 136 6 145 9 23 62 48 90 41 13 -4 33 -16 44 -28 18
-20 20 -35 20 -165 0 -139 1 -145 25 -168 26 -27 54 -31 88 -13 44 23 46 36
47 211 0 186 -7 217 -63 275 -26 27 -112 65 -136 61 -3 -1 -21 -5 -40 -9z"/>
<path d="M7252 2642 c-61 -22 -114 -69 -145 -127 -31 -59 -36 -187 -10 -246
29 -65 67 -105 129 -135 46 -23 64 -26 113 -21 32 2 72 12 89 21 31 16 32 16
32 -4 0 -29 -26 -76 -52 -94 -14 -10 -44 -16 -77 -16 -43 0 -67 7 -117 35 -34
19 -69 35 -77 35 -8 0 -26 -11 -41 -25 -55 -51 -16 -130 86 -176 44 -20 70
-24 148 -24 84 0 101 3 146 27 29 15 65 44 82 65 57 72 62 107 62 393 0 247
-1 261 -20 280 -26 26 -70 25 -104 -1 l-28 -22 -38 22 c-55 31 -115 35 -178
13z m147 -156 c40 -21 61 -59 61 -110 0 -35 -6 -50 -29 -75 -25 -27 -36 -31
-78 -31 -72 1 -113 43 -113 118 0 37 6 50 34 78 38 38 77 44 125 20z"/>
<path d="M3796 2627 l-26 -26 0 -226 0 -226 26 -26 c21 -21 32 -24 62 -20 61
10 66 23 72 167 5 123 6 131 31 156 17 16 45 30 75 35 26 5 52 13 56 17 4 4
10 38 14 76 6 60 5 71 -11 83 -36 26 -82 16 -130 -28 -44 -40 -45 -41 -45 -16
0 31 -18 46 -63 54 -29 4 -40 1 -61 -20z"/>
<path d="M5889 2621 l-29 -29 0 -217 0 -217 29 -29 c36 -35 70 -37 107 -5 27
23 28 27 34 151 l5 127 33 29 c22 20 43 29 65 29 51 0 64 17 71 89 6 52 4 67
-10 82 -31 34 -91 22 -146 -29 l-27 -25 -7 27 c-13 53 -79 62 -125 17z"/>
<path d="M6292 2628 c-19 -22 -21 -35 -24 -251 l-3 -229 28 -24 c38 -32 72
-31 108 5 l29 29 0 222 0 221 -25 24 c-32 33 -84 34 -113 3z"/>
</g>
</svg>
